{
	"patcher" : 	{
		"fileversion" : 1,
		"appversion" : 		{
			"major" : 5,
			"minor" : 1,
			"revision" : 9
		}
,
		"rect" : [ 237.0, 44.0, 1378.0, 314.0 ],
		"bglocked" : 0,
		"defrect" : [ 237.0, 44.0, 1378.0, 314.0 ],
		"openrect" : [ 0.0, 0.0, 0.0, 0.0 ],
		"openinpresentation" : 0,
		"default_fontsize" : 12.0,
		"default_fontface" : 0,
		"default_fontname" : "Arial",
		"gridonopen" : 0,
		"gridsize" : [ 15.0, 15.0 ],
		"gridsnaponopen" : 0,
		"toolbarvisible" : 1,
		"boxanimatetime" : 200,
		"imprint" : 0,
		"enablehscroll" : 1,
		"enablevscroll" : 1,
		"devicewidth" : 0.0,
		"boxes" : [ 			{
				"box" : 				{
					"maxclass" : "newobj",
					"text" : "route text",
					"fontsize" : 12.0,
					"numinlets" : 1,
					"patching_rect" : [ 30.0, 61.0, 61.0, 20.0 ],
					"numoutlets" : 2,
					"id" : "obj-11",
					"fontname" : "Arial",
					"outlettype" : [ "", "" ]
				}

			}
, 			{
				"box" : 				{
					"maxclass" : "newobj",
					"text" : "r 1podnamesave",
					"fontsize" : 10.0,
					"numinlets" : 0,
					"patching_rect" : [ 30.0, 35.0, 85.0, 18.0 ],
					"numoutlets" : 1,
					"id" : "obj-6",
					"fontname" : "Arial",
					"outlettype" : [ "" ]
				}

			}
, 			{
				"box" : 				{
					"maxclass" : "comment",
					"text" : "RIDERS NAMES",
					"fontsize" : 10.0,
					"numinlets" : 1,
					"patching_rect" : [ 8.0, 6.0, 150.0, 18.0 ],
					"numoutlets" : 0,
					"id" : "obj-21",
					"fontname" : "Arial"
				}

			}
, 			{
				"box" : 				{
					"maxclass" : "newobj",
					"text" : "s 12podname",
					"fontsize" : 10.0,
					"numinlets" : 1,
					"patching_rect" : [ 1176.0, 143.0, 71.0, 18.0 ],
					"numoutlets" : 0,
					"id" : "obj-16",
					"fontname" : "Arial"
				}

			}
, 			{
				"box" : 				{
					"maxclass" : "newobj",
					"text" : "s 11podname",
					"fontsize" : 10.0,
					"numinlets" : 1,
					"patching_rect" : [ 1069.0, 143.0, 70.0, 18.0 ],
					"numoutlets" : 0,
					"id" : "obj-17",
					"fontname" : "Arial"
				}

			}
, 			{
				"box" : 				{
					"maxclass" : "newobj",
					"text" : "s 10podname",
					"fontsize" : 10.0,
					"numinlets" : 1,
					"patching_rect" : [ 941.0, 143.0, 71.0, 18.0 ],
					"numoutlets" : 0,
					"id" : "obj-18",
					"fontname" : "Arial"
				}

			}
, 			{
				"box" : 				{
					"maxclass" : "newobj",
					"text" : "s 9podname",
					"fontsize" : 10.0,
					"numinlets" : 1,
					"patching_rect" : [ 829.0, 143.0, 66.0, 18.0 ],
					"numoutlets" : 0,
					"id" : "obj-19",
					"fontname" : "Arial"
				}

			}
, 			{
				"box" : 				{
					"maxclass" : "newobj",
					"text" : "s 8podname",
					"fontsize" : 10.0,
					"numinlets" : 1,
					"patching_rect" : [ 721.0, 143.0, 66.0, 18.0 ],
					"numoutlets" : 0,
					"id" : "obj-12",
					"fontname" : "Arial"
				}

			}
, 			{
				"box" : 				{
					"maxclass" : "newobj",
					"text" : "s 7podname",
					"fontsize" : 10.0,
					"numinlets" : 1,
					"patching_rect" : [ 611.0, 143.0, 66.0, 18.0 ],
					"numoutlets" : 0,
					"id" : "obj-13",
					"fontname" : "Arial"
				}

			}
, 			{
				"box" : 				{
					"maxclass" : "newobj",
					"text" : "s 6podname",
					"fontsize" : 10.0,
					"numinlets" : 1,
					"patching_rect" : [ 497.0, 143.0, 66.0, 18.0 ],
					"numoutlets" : 0,
					"id" : "obj-14",
					"fontname" : "Arial"
				}

			}
, 			{
				"box" : 				{
					"maxclass" : "newobj",
					"text" : "s 5podname",
					"fontsize" : 10.0,
					"numinlets" : 1,
					"patching_rect" : [ 393.0, 143.0, 66.0, 18.0 ],
					"numoutlets" : 0,
					"id" : "obj-15",
					"fontname" : "Arial"
				}

			}
, 			{
				"box" : 				{
					"maxclass" : "newobj",
					"text" : "s 4podname",
					"fontsize" : 10.0,
					"numinlets" : 1,
					"patching_rect" : [ 288.0, 143.0, 66.0, 18.0 ],
					"numoutlets" : 0,
					"id" : "obj-10",
					"fontname" : "Arial"
				}

			}
, 			{
				"box" : 				{
					"maxclass" : "newobj",
					"text" : "s 3podname",
					"fontsize" : 10.0,
					"numinlets" : 1,
					"patching_rect" : [ 198.0, 143.0, 66.0, 18.0 ],
					"numoutlets" : 0,
					"id" : "obj-9",
					"fontname" : "Arial"
				}

			}
, 			{
				"box" : 				{
					"maxclass" : "newobj",
					"text" : "s 2podname",
					"fontsize" : 10.0,
					"numinlets" : 1,
					"patching_rect" : [ 87.0, 143.0, 66.0, 18.0 ],
					"numoutlets" : 0,
					"id" : "obj-8",
					"fontname" : "Arial"
				}

			}
, 			{
				"box" : 				{
					"maxclass" : "newobj",
					"text" : "s 1podname",
					"fontsize" : 10.0,
					"numinlets" : 1,
					"patching_rect" : [ 10.0, 143.0, 66.0, 18.0 ],
					"numoutlets" : 0,
					"id" : "obj-7",
					"fontname" : "Arial"
				}

			}
, 			{
				"box" : 				{
					"maxclass" : "newobj",
					"text" : "loadbang",
					"fontsize" : 10.0,
					"numinlets" : 1,
					"patching_rect" : [ 334.0, 45.0, 52.0, 18.0 ],
					"numoutlets" : 1,
					"id" : "obj-5",
					"fontname" : "Arial",
					"outlettype" : [ "bang" ]
				}

			}
, 			{
				"box" : 				{
					"maxclass" : "message",
					"text" : "RUSSE",
					"fontsize" : 10.0,
					"numinlets" : 2,
					"patching_rect" : [ 1181.0, 111.0, 45.0, 16.0 ],
					"numoutlets" : 1,
					"id" : "obj-4",
					"fontname" : "Arial",
					"outlettype" : [ "" ]
				}

			}
, 			{
				"box" : 				{
					"maxclass" : "message",
					"text" : "CARTON",
					"fontsize" : 10.0,
					"numinlets" : 2,
					"patching_rect" : [ 1063.0, 111.0, 52.0, 16.0 ],
					"numoutlets" : 1,
					"id" : "obj-3",
					"fontname" : "Arial",
					"outlettype" : [ "" ]
				}

			}
, 			{
				"box" : 				{
					"maxclass" : "message",
					"text" : "SNCF",
					"fontsize" : 10.0,
					"numinlets" : 2,
					"patching_rect" : [ 947.0, 111.0, 38.0, 16.0 ],
					"numoutlets" : 1,
					"id" : "obj-2",
					"fontname" : "Arial",
					"outlettype" : [ "" ]
				}

			}
, 			{
				"box" : 				{
					"maxclass" : "message",
					"text" : "JORGE",
					"fontsize" : 10.0,
					"numinlets" : 2,
					"patching_rect" : [ 833.0, 111.0, 45.0, 16.0 ],
					"numoutlets" : 1,
					"id" : "obj-1",
					"fontname" : "Arial",
					"outlettype" : [ "" ]
				}

			}
, 			{
				"box" : 				{
					"maxclass" : "message",
					"text" : "JEROME",
					"fontsize" : 10.0,
					"numinlets" : 2,
					"patching_rect" : [ 720.0, 111.0, 52.0, 16.0 ],
					"numoutlets" : 1,
					"id" : "obj-161",
					"fontname" : "Arial",
					"outlettype" : [ "" ]
				}

			}
, 			{
				"box" : 				{
					"maxclass" : "message",
					"text" : "VINCE",
					"fontsize" : 10.0,
					"numinlets" : 2,
					"patching_rect" : [ 394.0, 111.0, 41.0, 16.0 ],
					"numoutlets" : 1,
					"id" : "obj-118",
					"fontname" : "Arial",
					"outlettype" : [ "" ]
				}

			}
, 			{
				"box" : 				{
					"maxclass" : "message",
					"text" : "MARION",
					"fontsize" : 10.0,
					"numinlets" : 2,
					"patching_rect" : [ 497.0, 111.0, 50.0, 16.0 ],
					"numoutlets" : 1,
					"id" : "obj-113",
					"fontname" : "Arial",
					"outlettype" : [ "" ]
				}

			}
, 			{
				"box" : 				{
					"maxclass" : "message",
					"text" : "CHARLIE",
					"fontsize" : 10.0,
					"numinlets" : 2,
					"patching_rect" : [ 197.0, 111.0, 54.0, 16.0 ],
					"numoutlets" : 1,
					"id" : "obj-110",
					"fontname" : "Arial",
					"outlettype" : [ "" ]
				}

			}
, 			{
				"box" : 				{
					"maxclass" : "message",
					"text" : "CLEM",
					"fontsize" : 10.0,
					"numinlets" : 2,
					"patching_rect" : [ 288.0, 111.0, 38.0, 16.0 ],
					"numoutlets" : 1,
					"id" : "obj-109",
					"fontname" : "Arial",
					"outlettype" : [ "" ]
				}

			}
, 			{
				"box" : 				{
					"maxclass" : "message",
					"text" : "SPARE",
					"fontsize" : 10.0,
					"numinlets" : 2,
					"patching_rect" : [ 612.0, 111.0, 44.0, 16.0 ],
					"numoutlets" : 1,
					"id" : "obj-108",
					"fontname" : "Arial",
					"outlettype" : [ "" ]
				}

			}
, 			{
				"box" : 				{
					"maxclass" : "message",
					"text" : "MORGANE",
					"fontsize" : 10.0,
					"numinlets" : 2,
					"patching_rect" : [ 87.0, 111.0, 62.0, 16.0 ],
					"numoutlets" : 1,
					"id" : "obj-106",
					"fontname" : "Arial",
					"outlettype" : [ "" ]
				}

			}
, 			{
				"box" : 				{
					"maxclass" : "message",
					"text" : "MARION",
					"fontsize" : 10.0,
					"numinlets" : 2,
					"patching_rect" : [ 10.0, 111.0, 50.0, 16.0 ],
					"numoutlets" : 1,
					"id" : "obj-104",
					"fontname" : "Arial",
					"outlettype" : [ "" ]
				}

			}
 ],
		"lines" : [ 			{
				"patchline" : 				{
					"source" : [ "obj-5", 0 ],
					"destination" : [ "obj-4", 0 ],
					"hidden" : 0,
					"midpoints" : [ 343.5, 86.5, 1190.5, 86.5 ]
				}

			}
, 			{
				"patchline" : 				{
					"source" : [ "obj-5", 0 ],
					"destination" : [ "obj-3", 0 ],
					"hidden" : 0,
					"midpoints" : [ 343.5, 86.5, 1072.5, 86.5 ]
				}

			}
, 			{
				"patchline" : 				{
					"source" : [ "obj-5", 0 ],
					"destination" : [ "obj-2", 0 ],
					"hidden" : 0,
					"midpoints" : [ 343.5, 86.5, 956.5, 86.5 ]
				}

			}
, 			{
				"patchline" : 				{
					"source" : [ "obj-5", 0 ],
					"destination" : [ "obj-1", 0 ],
					"hidden" : 0,
					"midpoints" : [ 343.5, 86.5, 842.5, 86.5 ]
				}

			}
, 			{
				"patchline" : 				{
					"source" : [ "obj-5", 0 ],
					"destination" : [ "obj-161", 0 ],
					"hidden" : 0,
					"midpoints" : [ 343.5, 86.5, 729.5, 86.5 ]
				}

			}
, 			{
				"patchline" : 				{
					"source" : [ "obj-5", 0 ],
					"destination" : [ "obj-108", 0 ],
					"hidden" : 0,
					"midpoints" : [ 343.5, 86.5, 621.5, 86.5 ]
				}

			}
, 			{
				"patchline" : 				{
					"source" : [ "obj-5", 0 ],
					"destination" : [ "obj-113", 0 ],
					"hidden" : 0,
					"midpoints" : [ 343.5, 86.5, 506.5, 86.5 ]
				}

			}
, 			{
				"patchline" : 				{
					"source" : [ "obj-5", 0 ],
					"destination" : [ "obj-118", 0 ],
					"hidden" : 0,
					"midpoints" : [ 343.5, 86.5, 403.5, 86.5 ]
				}

			}
, 			{
				"patchline" : 				{
					"source" : [ "obj-5", 0 ],
					"destination" : [ "obj-109", 0 ],
					"hidden" : 0,
					"midpoints" : [ 343.5, 86.5, 297.5, 86.5 ]
				}

			}
, 			{
				"patchline" : 				{
					"source" : [ "obj-5", 0 ],
					"destination" : [ "obj-110", 0 ],
					"hidden" : 0,
					"midpoints" : [ 343.5, 86.5, 206.5, 86.5 ]
				}

			}
, 			{
				"patchline" : 				{
					"source" : [ "obj-5", 0 ],
					"destination" : [ "obj-106", 0 ],
					"hidden" : 0,
					"midpoints" : [ 343.5, 86.5, 96.5, 86.5 ]
				}

			}
, 			{
				"patchline" : 				{
					"source" : [ "obj-5", 0 ],
					"destination" : [ "obj-104", 0 ],
					"hidden" : 0,
					"midpoints" : [ 343.5, 86.5, 19.5, 86.5 ]
				}

			}
, 			{
				"patchline" : 				{
					"source" : [ "obj-104", 0 ],
					"destination" : [ "obj-7", 0 ],
					"hidden" : 0,
					"midpoints" : [  ]
				}

			}
, 			{
				"patchline" : 				{
					"source" : [ "obj-106", 0 ],
					"destination" : [ "obj-8", 0 ],
					"hidden" : 0,
					"midpoints" : [  ]
				}

			}
, 			{
				"patchline" : 				{
					"source" : [ "obj-110", 0 ],
					"destination" : [ "obj-9", 0 ],
					"hidden" : 0,
					"midpoints" : [  ]
				}

			}
, 			{
				"patchline" : 				{
					"source" : [ "obj-109", 0 ],
					"destination" : [ "obj-10", 0 ],
					"hidden" : 0,
					"midpoints" : [  ]
				}

			}
, 			{
				"patchline" : 				{
					"source" : [ "obj-118", 0 ],
					"destination" : [ "obj-15", 0 ],
					"hidden" : 0,
					"midpoints" : [  ]
				}

			}
, 			{
				"patchline" : 				{
					"source" : [ "obj-113", 0 ],
					"destination" : [ "obj-14", 0 ],
					"hidden" : 0,
					"midpoints" : [  ]
				}

			}
, 			{
				"patchline" : 				{
					"source" : [ "obj-108", 0 ],
					"destination" : [ "obj-13", 0 ],
					"hidden" : 0,
					"midpoints" : [  ]
				}

			}
, 			{
				"patchline" : 				{
					"source" : [ "obj-161", 0 ],
					"destination" : [ "obj-12", 0 ],
					"hidden" : 0,
					"midpoints" : [  ]
				}

			}
, 			{
				"patchline" : 				{
					"source" : [ "obj-1", 0 ],
					"destination" : [ "obj-19", 0 ],
					"hidden" : 0,
					"midpoints" : [  ]
				}

			}
, 			{
				"patchline" : 				{
					"source" : [ "obj-2", 0 ],
					"destination" : [ "obj-18", 0 ],
					"hidden" : 0,
					"midpoints" : [  ]
				}

			}
, 			{
				"patchline" : 				{
					"source" : [ "obj-3", 0 ],
					"destination" : [ "obj-17", 0 ],
					"hidden" : 0,
					"midpoints" : [  ]
				}

			}
, 			{
				"patchline" : 				{
					"source" : [ "obj-4", 0 ],
					"destination" : [ "obj-16", 0 ],
					"hidden" : 0,
					"midpoints" : [  ]
				}

			}
, 			{
				"patchline" : 				{
					"source" : [ "obj-6", 0 ],
					"destination" : [ "obj-11", 0 ],
					"hidden" : 0,
					"midpoints" : [  ]
				}

			}
, 			{
				"patchline" : 				{
					"source" : [ "obj-11", 0 ],
					"destination" : [ "obj-104", 1 ],
					"hidden" : 0,
					"midpoints" : [  ]
				}

			}
 ]
	}

}
